<svg xmlns="http://www.w3.org/2000/svg" width="764.999" height="716.837" viewBox="0 0 764.999 716.837">
  <g id="Layer_x0020_1" transform="translate(-8475.061 -12610.728)">
    <g id="_3149547240560" transform="translate(8475.061 12610.728)">
      <path id="Path_80" data-name="Path 80" d="M9512.285,12649.51c33.937,1.921,75.077,4.8,116.377,7.363,41.3,2.722,82.92,4.8,120.538,4.162,37.458-.8,70.754-4.482,96.847-13.606,25.933-9.284,44.342-24.012,54.427-31.375,9.925-7.524,11.525-7.524,11.525,2.881s-1.6,31.056-13.286,56.508c-11.846,25.452-33.937,55.706-60.51,76.677-26.413,21.13-57.147,32.816-99.408,35.857-42.1,2.881-95.566-3.041-153.994-7.363-58.588-4.482-122.3-7.364-168.241-3.362-46.1,4-74.276,15.208-92.524,25.132s-26.413,18.729-32.656,24.652c-6.083,5.923-10.245,8.965-13.126,8.164-2.722-.8-4.322-5.123-2.241-19.529s7.684-38.738,19.529-64.672c11.846-25.771,29.774-53.146,52.346-70.754,22.57-17.769,49.783-25.933,76.837-29.614C9451.616,12646.948,9478.35,12647.748,9512.285,12649.51Z" transform="translate(-9146.999 -12610.727)" fill="#fff" fill-rule="evenodd"/>
      <path id="Path_81" data-name="Path 81" d="M9112.285,14187.377c33.937,1.92,75.076,4.8,116.377,7.363s82.92,4.8,120.538,4.162c37.458-.8,70.754-4.482,96.847-13.767,25.933-9.125,44.342-24.012,54.426-31.376,9.926-7.363,11.526-7.363,11.526,3.042,0,10.245-1.6,30.895-13.287,56.347-11.846,25.453-33.937,55.867-60.509,76.838-26.413,20.97-57.147,32.815-99.408,35.857-42.1,2.881-95.566-3.042-153.994-7.523-58.589-4.322-122.3-7.364-168.241-3.2-46.1,4-74.276,15.048-92.525,24.972-18.248,10.085-26.412,18.89-32.655,24.813-6.083,5.923-10.245,8.8-13.127,8.164-2.721-.8-4.321-5.283-2.24-19.689a247.273,247.273,0,0,1,19.529-64.512c11.846-25.772,29.774-53.146,52.345-70.914,22.571-17.608,49.784-25.772,76.837-29.454C9051.616,14184.815,9078.35,14185.615,9112.285,14187.377Z" transform="translate(-8811.029 -13902.395)" fill="#fff" fill-rule="evenodd"/>
      <path id="Path_82" data-name="Path 82" d="M8712.285,15725.3c33.937,1.761,75.076,4.8,116.377,7.364s82.92,4.8,120.538,4c37.458-.641,70.754-4.322,96.847-13.607,25.933-9.284,44.341-24.012,54.426-31.375,9.925-7.363,11.525-7.363,11.525,2.882,0,10.405-1.6,31.055-13.286,56.507-11.846,25.453-33.937,55.707-60.509,76.838-26.413,20.97-57.148,32.815-99.408,35.7-42.1,3.041-95.566-2.882-153.994-7.364-58.589-4.481-122.3-7.363-168.242-3.361-46.1,4.162-74.275,15.207-92.524,25.132s-26.413,18.89-32.655,24.813c-6.083,5.763-10.245,8.8-13.127,8-2.721-.641-4.322-5.123-2.241-19.529a245.572,245.572,0,0,1,19.53-64.512c11.846-25.933,29.773-53.146,52.345-70.914s49.784-25.772,76.837-29.454C8651.616,15722.734,8678.349,15723.375,8712.285,15725.3Z" transform="translate(-8475.061 -15194.115)" fill="#fff" fill-rule="evenodd"/>
    </g>
  </g>
</svg>
